# xmcd
#
# Track frame offsets:
#	150
#	40517
#	67797
#	86234
#	133693
#	166260
#
# Disc length: 2824 seconds
#
# Revision: 0
# Processed by: cddbd v1.5.1PL2 Copyright (c) Steve Scherf et al.
# Submitted via: EasyCDDAExtractor 9.0.0.1
#
DISCID=430b0606
DTITLE=Dio - Tentfestival Ulm 02-06-06 Disc 2
DYEAR=2006
DGENRE=Hard Rock
TTITLE0=All The Fools Sailed Away
TTITLE1=Man On The Silver Mountain - Catch The Rainbow
TTITLE2=Long Live Rock and Roll
TTITLE3=Heaven and Hell
TTITLE4=We Rock
TTITLE5=Last In Line
EXTD=
EXTT0=
EXTT1=
EXTT2=
EXTT3=
EXTT4=
EXTT5=
PLAYORDER=
